<?xml version="1.0" encoding="utf-8"?>
<!-- Generator: Adobe Illustrator 22.0.1, SVG Export Plug-In . SVG Version: 6.00 Build 0)  -->
<svg version="1.1" id="Layer_1" xmlns="http://www.w3.org/2000/svg" xmlns:xlink="http://www.w3.org/1999/xlink" x="0px" y="0px"
	 viewBox="0 0 148 900" style="enable-background:new 0 0 148 900;" xml:space="preserve">
<style type="text/css">
	.st0{fill:url(#SVGID_1_);}
	.st1{fill:#1D073D;}
	.st2{fill:#7A1757;}
	.st3{fill:#450F93;}
</style>
<g>
	
		<linearGradient id="SVGID_1_" gradientUnits="userSpaceOnUse" x1="-380.1037" y1="494.7567" x2="-378.7343" y2="497.1285" gradientTransform="matrix(4.489700e-11 -1 -1 -4.489700e-11 525.5 524.5)">
		<stop  offset="0" style="stop-color:#621AD3"/>
		<stop  offset="1" style="stop-color:#E52372"/>
	</linearGradient>
	<path class="st0" d="M29.9,905.3c0.1,0.3,0.2,0.5,0.2,0.5S27.9,897.8,29.9,905.3z"/>
	<path class="st1" d="M29.5-1.8L122,147L59,655.2l30.3,249.6c-3.2-5.5-17.8-29.2-35.2-74.3l1.3-0.5c0,0-9.7-130,6.7-191.4
		C88.6,539.6,152.1,514,94.5,329c-39.8-128.1-3.9-189.8-1.3-230.8C96.4,51,35.1,3.2,29.5-1L29.5-1.8z"/>
	<path class="st2" d="M15.3-1.3l47.2,0c0,0,22.9,0.6,23,0.3c5.5,4.2,47.9,52.6,51.9,99.6c10.8,125.8-37.2,122.5-6.9,245.6
		c41.2,167.1-10.1,195.4-35.7,294.3c-15.9,61.4,16,191.4,16,191.4l-1.3,0.5c-17.5-46.7-34.1-107.4-33-167.4
		c1-47.4,14.5-140.8,8.9-169C68,405.4,42.2,343.6,62.6,271c22.9-81.3,30.7-95.8,13.1-207.5C53.7,9.7,18-0.2,15.4-0.8
		C15.3-0.8-1-0.7-1-0.7L15.3-1.3z"/>
	<path class="st3" d="M47.1,513.3c0-106.7-47.1-167.1-31-257.4c13-72.9,63.5-94.8,41.7-169.3C39.6,23.8,2,0.8-0.1,0.3
		c2.6,0.7,39.9-26.3,76.7,64.2c42.2,104.1,9.8,126.2-13.1,207.5c-20.4,72.6,46.5,126.5,40.8,216.8c-5.2,83.9-26,127.9-26.9,175.3
		c-1.1,60,15.4,120.7,33,167.4c16.9,45.1,34.5,77,37.6,82.5c0.3,0.6-5.4-10.2-5.4-10.2L29,903.2c-2-7.5-20.2-84-24.2-136.6
		C-1.4,683.6,47.1,633,47.1,513.3z"/>
</g>
</svg>
