<?xml version="1.0" encoding="utf-8"?>
<!-- Generator: Adobe Illustrator 22.0.1, SVG Export Plug-In . SVG Version: 6.00 Build 0)  -->
<svg version="1.1" id="Layer_1" xmlns="http://www.w3.org/2000/svg" xmlns:xlink="http://www.w3.org/1999/xlink" x="0px" y="0px"
	 viewBox="0 0 1018 212" style="enable-background:new 0 0 1018 212;" xml:space="preserve">
<style type="text/css">
	.st0{fill:url(#SVGID_1_);}
	.st1{fill:#450F93;}
	.st2{fill:#1D073D;}
	.st3{fill:#7A1757;}
</style>
<g id="XMLID_1_">
	<g>
		
			<linearGradient id="SVGID_1_" gradientUnits="userSpaceOnUse" x1="355.6611" y1="-41.5619" x2="580.6606" y2="348.1486" gradientTransform="matrix(1 0 0 -1 0 214)">
			<stop  offset="0" style="stop-color:#621AD3"/>
			<stop  offset="1" style="stop-color:#E52372"/>
		</linearGradient>
		<path class="st0" d="M423.9,45.6C292.1,74.8,257.2,8.4,165,15.5C106.4,20,9.1,47.8,0.8,50.2c-0.4,0.1-0.6,0.2-0.6,0.2
			s908.9,77.9,935.9,20.7c-49.9,9.4-130.2-4-203.4-42.4C673.4-2.4,614.8,3.4,423.9,45.6z"/>
		<path class="st1" d="M423.9,45.6c190.9-42.3,249.5-48,308.8-16.9C805.9,67,886.2,80.5,936.1,71.1c71.6-13.5,80.3-39.7,80.9-42.2
			c-0.8,3-11.7,44.2-71.5,69.5c-115.6,49.1-140.3,11.3-230.7-15.1c-80.7-23.5-142.4,27-241,47.1c-31.3,6.4-142.2-29.9-194.9-31.1
			c-66.7-1.3-134.2,17.8-186,38c-50.1,19.5-85.6,39.8-91.7,43.4c-0.7,0.4-0.9,0.6-0.9,0.6L0.8,50.2C9.1,47.9,106.4,20.1,165,15.6
			C257.2,8.4,292.1,74.8,423.9,45.6z"/>
		<path class="st2" d="M1018,109.7c0,0-520,49-735.6,18.6c-86.8-12.2-216.1,19.3-189.5,9l0.6,1.5c0,0,144.5-10.8,212.8,7.5
			c110,29.6,138.4,100.7,344.1,36.2c142.4-44.6,211-4.4,256.6-1.4c52.4,3.5,105.5-65.2,110.3-71.6L1018,109.7z"/>
		<path class="st3" d="M1017.5,28.7v80.5c0,0-0.1,0.2-0.4,0.5c-4.7,6.3-57.9,75-110.3,71.6c-45.6-3-114.2-43.2-256.6,1.4
			c-205.7,64.5-234.2-6.7-344.1-36.2c-68.3-18.4-212.8-7.5-212.8-7.5l-0.6-1.5c51.9-20.1,119.4-39.4,186-38
			c52.7,1.1,163.6,37.5,194.9,31.1c98.7-20.1,160.3-70.6,241-47.1c90.4,26.4,115.1,64.1,230.7,15.1c59.8-25.3,70.8-66.5,71.5-69.5
			c0-0.1,0.1-0.2,0.1-0.2H1017.5z"/>
	</g>
</g>
</svg>
