<?xml version="1.0" encoding="utf-8"?>
<!-- Generator: Adobe Illustrator 22.0.1, SVG Export Plug-In . SVG Version: 6.00 Build 0)  -->
<svg version="1.1" id="Layer_1" xmlns="http://www.w3.org/2000/svg" xmlns:xlink="http://www.w3.org/1999/xlink" x="0px" y="0px"
	 viewBox="0 0 416 416" style="enable-background:new 0 0 416 416;" xml:space="preserve">
<style type="text/css">
	.st0{fill:#FFFFFF;}
</style>
<path class="st0" d="M109.5,222.7c-20.2,0-36.6,16.4-36.6,36.6c0,20.2,16.4,36.6,36.6,36.6s36.6-16.4,36.6-36.6
	C146.1,239.1,129.7,222.7,109.5,222.7z M109.5,282.3c-12.7,0-23-10.3-23-23c0-12.7,10.3-23,23-23s23,10.3,23,23
	C132.5,272,122.2,282.3,109.5,282.3z"/>
<path class="st0" d="M272.2,222.7c-20.2,0-36.6,16.4-36.6,36.6c0,20.2,16.4,36.6,36.6,36.6s36.6-16.4,36.6-36.6
	C308.9,239.1,292.4,222.7,272.2,222.7z M272.2,282.3c-12.7,0-23-10.3-23-23c0-12.7,10.3-23,23-23s23,10.3,23,23
	C295.2,272,284.9,282.3,272.2,282.3z"/>
<path class="st0" d="M225.6,310.2c-20.8,10.7-41.5,10.7-63.5-0.1c-3.4-1.7-7.5-0.3-9.1,3.1c-1.7,3.4-0.3,7.5,3.1,9.1
	c12.8,6.3,25.6,9.4,38.2,9.4c12.7,0,25.2-3.2,37.5-9.5c3.4-1.7,4.7-5.8,2.9-9.2C233.1,309.8,229,308.5,225.6,310.2z"/>
<path class="st0" d="M409.2,34.4H231.9c-3.8,0-6.8,3-6.8,6.8v68.2H115.3c-44.8,0-81.2,36.4-81.2,81.2v23.8
	C14.2,219.6,0,237.7,0,258.4c0,20.8,14.2,38.8,34.1,44v29.5c0,27.7,22.6,50.3,50.3,50.3h220c27.7,0,50.3-22.6,50.3-50.3v-30.7
	c17.9-6.5,30.1-23.3,30.1-42.8c0-19.2-12.2-36.2-30.1-42.8v-25.1c0-14.3-3.7-28-10.7-40.2h65.3c3.8,0,6.8-3,6.8-6.8V41.2
	C416,37.4,413,34.4,409.2,34.4z M13.6,258.4c0-13.3,8.4-25.1,20.5-29.8v59.7C22,283.6,13.6,271.8,13.6,258.4z M371.1,258.4
	c0,11.7-6.6,22.3-16.4,27.8v-55.7C364.5,236.1,371.1,246.7,371.1,258.4z M328.8,151.9c8,11.4,12.2,24.8,12.2,38.7v104.3
	c-0.2,1-0.3,2,0,3c0,0,0,0.1,0,0.1v34c0,20.2-16.4,36.6-36.6,36.6h-220c-20.2,0-36.6-16.4-36.6-36.6V190.6
	c0-37.2,30.3-67.5,67.5-67.5h109.8v20.5c0,3.8,3,6.8,6.8,6.8H266v30.4c0,2.8,1.7,5.4,4.4,6.4c0.8,0.3,1.6,0.5,2.4,0.5
	c1.9,0,3.8-0.8,5.1-2.3l31.3-34.9h18.9C328.3,150.8,328.5,151.4,328.8,151.9z M402.4,136.7h-96.2c-1.9,0-3.8,0.8-5.1,2.3l-21.5,23.9
	v-19.4c0-3.8-3.1-6.8-6.8-6.8h-34.1V48h163.7V136.7z"/>
<path class="st0" d="M262.8,81.8h39.4c3.8,0,6.8-3.1,6.8-6.8c0-3.8-3-6.8-6.8-6.8h-39.4c-3.8,0-6.8,3.1-6.8,6.8
	C256,78.7,259,81.8,262.8,81.8z"/>
<path class="st0" d="M262.8,115.8h119.1c3.8,0,6.8-3.1,6.8-6.8c0-3.8-3.1-6.8-6.8-6.8H262.8c-3.8,0-6.8,3.1-6.8,6.8
	C256,112.8,259,115.8,262.8,115.8z"/>
</svg>
